<svg width="50" height="50" viewBox="0 0 50 50" fill="none" xmlns="http://www.w3.org/2000/svg">
<g clip-path="url(#clip0_505_5)">
<path d="M45 0H5C2.23858 0 0 2.23858 0 5V45C0 47.7614 2.23858 50 5 50H45C47.7614 50 50 47.7614 50 45V5C50 2.23858 47.7614 0 45 0Z" fill="#FDE635"/>
<path d="M7.36694 6.61597H42.8299V41.816H7.36694V6.61597Z" fill="#FDE635"/>
<path d="M13.9641 36.77L17.1471 34.844C17.7611 35.933 18.3201 36.854 19.6601 36.854C20.9441 36.854 21.7541 36.354 21.7541 34.397V21.107H25.6631V34.452C25.6631 38.5 23.2901 40.343 19.8281 40.343C18.6042 40.4092 17.3889 40.1032 16.3423 39.4652C15.2958 38.8273 14.467 37.8872 13.9651 36.769L13.9641 36.77ZM27.7871 36.35L30.9701 34.507C31.324 35.225 31.8733 35.8285 32.5549 36.2483C33.2365 36.6681 34.0227 36.887 34.8231 36.88C36.4431 36.88 37.4751 36.07 37.4751 34.953C37.4751 33.613 36.4141 33.138 34.6271 32.353L33.6531 31.939C30.8331 30.739 28.9621 29.231 28.9621 26.048C28.9621 23.116 31.1961 20.883 34.6861 20.883C35.8169 20.801 36.9469 21.0539 37.9349 21.61C38.923 22.1661 39.7254 23.0008 40.2421 24.01L37.1981 25.965C36.9983 25.464 36.651 25.0356 36.2022 24.7365C35.7534 24.4373 35.2244 24.2816 34.6851 24.29C34.45 24.2662 34.2125 24.2917 33.9878 24.3648C33.7631 24.438 33.5562 24.5572 33.3801 24.7148C33.2041 24.8724 33.0628 25.065 32.9653 25.2802C32.8679 25.4955 32.8164 25.7287 32.8141 25.965C32.8141 27.138 33.5401 27.612 35.2141 28.338L36.1911 28.757C39.5141 30.181 41.3841 31.633 41.3841 34.899C41.3841 38.417 38.6201 40.344 34.9071 40.344C31.2771 40.344 28.9321 38.613 27.7871 36.351" fill="black"/>
</g>
<defs>
<clipPath id="clip0_505_5">
<rect width="50" height="50" fill="white"/>
</clipPath>
</defs>
</svg>
