<svg width="50" height="50" viewBox="0 0 50 50" fill="none" xmlns="http://www.w3.org/2000/svg">
<g clip-path="url(#clip0_505_2)">
<path d="M45 0H5C2.23858 0 0 2.19468 0 4.90196V45.098C0 47.8053 2.23858 50 5 50H45C47.7614 50 50 47.8053 50 45.098V4.90196C50 2.19468 47.7614 0 45 0Z" fill="#3BC0DD"/>
<path d="M25.9739 37.1472C25.6739 36.8658 25.3609 36.5834 25.0619 36.2707C24.8229 36.505 24.5989 36.7246 24.3619 36.9432C21.4029 39.6491 18.3529 40.7756 16.5449 39.6805C14.7959 38.6325 14.2449 35.5364 14.9449 31.6413C15.0196 31.2191 15.1092 30.7968 15.2139 30.3746C14.8999 30.2766 14.6009 30.1864 14.3019 30.0805C10.5789 28.7325 8.12793 26.5432 8.12793 24.3531C8.12793 22.2423 10.4149 20.1932 13.9869 18.8795C14.3869 18.7383 14.8089 18.5982 15.2429 18.4727C15.1429 18.0658 15.0639 17.6746 14.9889 17.2962C14.2409 13.3423 14.7639 10.1834 16.5279 9.11971C18.3659 7.99324 21.4159 9.19814 24.4789 12.0285C24.6579 12.2001 24.8379 12.3883 25.0319 12.5756C25.3159 12.2942 25.5849 12.0129 25.8689 11.7629C28.7689 9.11579 31.6529 8.00893 33.4169 9.07265C35.2549 10.1668 35.7939 13.5452 34.9719 17.7217C34.9269 17.9883 34.8719 18.2383 34.8079 18.506C35.1819 18.6158 35.5549 18.7403 35.8989 18.8658C39.5459 20.1795 41.9079 22.2285 41.8779 24.3864C41.8779 26.5913 39.3519 28.7658 35.4779 30.1109C35.2689 30.1736 35.0599 30.2521 34.8499 30.3138C34.9399 30.6266 34.9989 30.9393 35.0589 31.2521C35.8359 35.3031 35.2379 38.6187 33.4299 39.7138C32.9551 39.9941 32.409 40.1368 31.8549 40.1256C30.1979 40.1227 28.0939 39.0531 25.9739 37.1472ZM28.9039 31.407C28.0453 32.7164 27.1017 33.9703 26.0789 35.1609C26.3629 35.455 26.6469 35.7246 26.9309 35.9746C29.3969 38.1952 31.6689 39.0246 32.7309 38.3834C33.0552 38.1096 33.3202 37.7748 33.5102 37.3987C33.7002 37.0227 33.8113 36.6131 33.8369 36.1942C34.0527 34.6421 33.9918 33.0651 33.6569 31.5334C33.6119 31.2521 33.5569 30.9707 33.4779 30.6736C31.9719 31.0192 30.4437 31.2642 28.9039 31.407ZM16.3779 31.908C15.7659 35.2413 16.2139 37.7256 17.2779 38.3678C17.6549 38.5222 18.0618 38.5935 18.47 38.5765C18.8782 38.5596 19.2776 38.4549 19.6399 38.2697C21.0493 37.689 22.3329 36.8502 23.4219 35.7981C23.6459 35.6099 23.8549 35.3913 24.0799 35.1727C23.0346 33.9817 22.066 32.7279 21.1799 31.4187C19.6459 31.2931 18.1226 31.0638 16.6209 30.7325C16.5279 31.1413 16.4529 31.5315 16.3779 31.908ZM25.0779 34.0972C25.7359 33.3305 26.3929 32.4864 27.0509 31.5481C26.3929 31.5795 25.7059 31.5952 25.0179 31.5952C24.3299 31.5952 23.6879 31.5795 23.0449 31.5481C23.7169 32.4697 24.3899 33.3305 25.0769 34.0972H25.0779ZM21.9379 18.8325C21.3699 19.6923 20.8169 20.5972 20.2939 21.554C19.7709 22.4923 19.2939 23.4462 18.8589 24.3972C19.3079 25.3354 19.7859 26.2893 20.3089 27.2599C20.8319 28.1981 21.3849 29.1227 21.9529 29.9962C22.9389 30.0589 23.9709 30.0942 25.0169 30.0942C26.0629 30.0942 27.1089 30.0629 28.1109 29.9854C28.6489 29.1256 29.2019 28.2021 29.7259 27.2482C30.2499 26.2942 30.7419 25.3246 31.1759 24.3864C30.7419 23.4638 30.2489 22.5099 29.7259 21.555C29.2029 20.6001 28.6499 19.6923 28.0969 18.8334C27.0969 18.755 26.0639 18.708 25.0179 18.708C23.9719 18.708 22.9399 18.754 21.9379 18.8325ZM17.0059 29.2952C18.0314 29.5249 19.0694 29.6974 20.1149 29.8119C19.7559 29.2178 19.3979 28.6227 19.0539 27.9972C18.7249 27.3874 18.3959 26.7776 18.0969 26.1678C17.6639 27.2305 17.3049 28.2805 17.0059 29.2952ZM30.9809 27.9815C30.6369 28.607 30.2929 29.2011 29.9499 29.7805C31.011 29.6502 32.064 29.4623 33.1039 29.2178C32.7792 28.162 32.4 27.1231 31.9679 26.105C31.6539 26.7305 31.3249 27.356 30.9809 27.9815ZM14.4499 20.3178C11.4009 21.4442 9.56293 23.0844 9.56293 24.3687C9.62106 24.7819 9.76184 25.1798 9.97721 25.5395C10.1925 25.8992 10.4783 26.2136 10.8179 26.4648C11.9845 27.4266 13.3223 28.1688 14.7639 28.654C15.0329 28.7521 15.3169 28.8266 15.6009 28.9207C16.06 27.3823 16.6141 25.8727 17.2599 24.4001C16.6128 22.9528 16.0636 21.4652 15.6159 19.9472C15.2126 20.0531 14.8239 20.1766 14.4499 20.3178ZM32.7899 24.3687C33.4532 25.8226 34.021 27.3165 34.4899 28.8413C34.6849 28.7785 34.8789 28.7158 35.0579 28.6531C38.3909 27.4962 40.4579 25.7285 40.4689 24.3521C40.4689 23.0697 38.5559 21.4109 35.4319 20.2854C35.1179 20.1766 34.7749 20.0668 34.4319 19.957C33.9791 21.4597 33.4307 22.9332 32.7899 24.3687ZM30.9669 20.7717C31.3109 21.3972 31.6399 22.008 31.9379 22.6178C32.3532 21.6211 32.7124 20.6029 33.0139 19.5678C31.9987 19.3259 30.9708 19.1381 29.9349 19.005C30.2939 19.5825 30.6369 20.1619 30.9659 20.7717H30.9669ZM17.0209 19.555C17.3209 20.556 17.6789 21.5727 18.0969 22.6197C18.3969 22.0099 18.7249 21.4001 19.0539 20.7903C19.3829 20.1805 19.7259 19.5864 20.0849 19.007C19.0089 19.1452 17.9929 19.3325 17.0209 19.555ZM26.8109 12.908C26.5569 13.1423 26.3029 13.3923 26.0479 13.6432C27.0858 14.8192 28.0398 16.064 28.9029 17.3687C30.424 17.5127 31.9325 17.7637 33.4169 18.1197C33.4769 17.8854 33.5169 17.6501 33.5669 17.4158C34.2669 13.8187 33.8359 11.0658 32.6999 10.3785C32.4506 10.2413 32.1677 10.1735 31.8819 10.1825C30.6609 10.1766 28.7869 11.1089 26.8109 12.905V12.908ZM17.2449 10.4178C16.1839 11.0589 15.7649 13.6236 16.3929 17.0021C16.4679 17.3619 16.5429 17.7207 16.6319 18.0962C18.1183 17.7532 19.6263 17.5076 21.1459 17.3609C22.0121 16.0545 22.9712 14.8096 24.0159 13.6354C23.8519 13.4629 23.6719 13.307 23.5079 13.1501C21.4279 11.2217 19.4279 10.204 18.1219 10.204C17.815 10.1938 17.5112 10.2678 17.2449 10.4178ZM27.0199 17.2364C26.4035 16.362 25.7385 15.5215 25.0279 14.7187C24.3559 15.4844 23.6829 16.3295 23.0279 17.2364C23.6859 17.205 24.3429 17.1893 25.0159 17.1893C25.6889 17.1893 26.3629 17.2021 27.0209 17.2364H27.0199ZM22.0279 24.4315C22.0139 24.0295 22.0809 23.6288 22.2252 23.2523C22.3694 22.8757 22.588 22.5308 22.8685 22.2373C23.1489 21.9437 23.4857 21.7074 23.8595 21.5417C24.2334 21.376 24.6369 21.2842 25.0469 21.2717C25.8742 21.2993 26.6567 21.6475 27.2226 22.2398C27.7885 22.8321 28.0918 23.6203 28.0659 24.4315C28.0926 25.2433 27.7896 26.0324 27.2233 26.6254C26.6571 27.2184 25.874 27.5669 25.0459 27.5942C24.6356 27.5817 24.2319 27.4899 23.858 27.324C23.484 27.1581 23.1471 26.9214 22.8667 26.6275C22.5863 26.3337 22.3679 25.9884 22.2239 25.6115C22.08 25.2347 22.0133 24.8336 22.0279 24.4315Z" fill="#E6E6E6"/>
</g>
<defs>
<clipPath id="clip0_505_2">
<rect width="50" height="50" fill="white"/>
</clipPath>
</defs>
</svg>
